<?xml version="1.0" standalone="no"?>
<!DOCTYPE svg PUBLIC "-//W3C//DTD SVG 20010904//EN"
 "http://www.w3.org/TR/2001/REC-SVG-20010904/DTD/svg10.dtd">
<svg version="1.0" xmlns="http://www.w3.org/2000/svg"
 width="154.000000pt" height="250.000000pt" viewBox="0 0 154.000000 250.000000"
 preserveAspectRatio="xMidYMid meet">

<g transform="translate(0.000000,250.000000) scale(0.100000,-0.100000)"
fill="#000000" stroke="none">
<path d="M330 2363 c0 -13 284 -593 288 -589 2 3 4 51 5 108 l2 103 213 3 212
2 0 -552 -1 -553 118 -242 c65 -133 122 -242 126 -242 16 -2 78 75 105 129
l27 55 0 745 0 745 -29 63 c-37 81 -138 178 -193 187 -21 4 -59 15 -85 26 -43
18 -75 19 -417 19 -204 0 -371 -3 -371 -7z"/>
<path d="M242 1324 l3 -976 30 -25 29 -26 411 6 c407 5 480 12 491 41 3 8 -31
86 -75 175 l-81 161 -210 0 -210 0 0 430 0 431 -187 379 c-102 209 -190 380
-195 380 -4 0 -7 -439 -6 -976z"/>
</g>
</svg>
